PathFileType	4	(X/Y/Z)	Patient4_TMGait_0pt2_01_right_20.trc.trc
DataRate	CameraRate	NumFrames	NumMarkers	Units	OrigDataRate	OrigDataStartFrame	OrigNumFrames
45.901639344262	45.901639344262	4	33	mm	45.901639344262	18	       141
Frame#	Time	Sacral			L.Shoulder			Chest			R.Shoulder			Neck			R.ASIS			L.ASIS			R.Thigh.Superior			R.Thigh.Lateral			R.Thigh.Inferior			R.Patella			L.Thigh.Superior			L.Thigh.Lateral			L.Thigh.Inferior			L.Patella			L.Shank.Superior			L.Shank.Lateral			L.Shank.Inferior			R.Shank.Superior			R.Shank.Lateral			R.Shank.Inferior			R.Heel			R.Midfoot.Superior			R.Midfoot.Lateral			R.Toe			L.Heel			L.Midfoot.Lateral			L.Midfoot.Superior			L.Toe			L.Elbow			L.Wrist			R.Elbow			R.Wrist			
		X1	Y1	Z1	X2	Y2	Z2	X3	Y3	Z3	X4	Y4	Z4	X5	Y5	Z5	X6	Y6	Z6	X7	Y7	Z7	X8	Y8	Z8	X9	Y9	Z9	X10	Y10	Z10	X11	Y11	Z11	X12	Y12	Z12	X13	Y13	Z13	X14	Y14	Z14	X15	Y15	Z15	X16	Y16	Z16	X17	Y17	Z17	X18	Y18	Z18	X19	Y19	Z19	X20	Y20	Z20	X21	Y21	Z21	X22	Y22	Z22	X23	Y23	Z23	X24	Y24	Z24	X25	Y25	Z25	X26	Y26	Z26	X27	Y27	Z27	X28	Y28	Z28	X29	Y29	Z29	X30	Y30	Z30	X31	Y31	Z31	X32	Y32	Z32	X33	Y33	Z33	

18	45.350357142857	644.134954723816	1014.771998995895	419.876837817672	896.201083720084	1437.006811663709	300.406823380522	947.738192872008	1352.066657050851	476.833015138044	827.232759868691	1423.121911039795	628.377499257289	846.785524458746	1492.054788769219	454.066805700078	843.143737748791	941.423742755898	584.180262623644	884.258499584147	954.257832259812	311.713450170585	913.263022050064	757.271047091847	562.194291770048	848.589601001810	642.497795411983	625.430605073612	937.126421191007	595.764769816278	551.286398695230	955.244828069977	504.209495841736	568.402762292744	910.543315105124	737.801019099520	360.184866568619	830.193177266619	618.976931875681	288.618084868775	894.225990527039	544.008835256324	372.497153038096	888.969462558416	472.947660400634	382.691054338171	851.556215114205	401.621976292107	369.942761176933	756.474545417954	297.935852155612	308.241240677893	778.019377196887	184.032605257221	386.735162202740	917.413183483383	417.668849180820	583.662452217289	837.815846047250	325.970828824010	655.930466912861	879.450335695273	221.953566809716	607.578983262827	742.650271356616	50.501740686553	595.690306684735	915.258044357076	110.441660516245	627.528267674639	829.944321512599	43.221071708263	665.879762921095	1036.340331470046	63.309608048423	648.952297514520	629.191266151154	38.227574353090	414.839614020905	708.705994170823	35.616004591197	339.375070217579	791.462316232822	94.749343987198	373.579039706637	920.657767554000	40.226299015882	352.111996357439	1000.024771071712	1141.006312462201	120.767456472123	1248.328378168690	1090.072119452719	171.029402196191	668.182774111446	1100.651806480123	688.777048084922	672.080361162152	840.082187497592	698.015809793166	
19	45.372142857143	643.448637301740	1015.516804851703	421.593669725885	898.993784826033	1436.456742700945	304.314106077660	947.876563665208	1351.788260843091	481.635796649986	825.738711213646	1424.015103355248	631.354652004256	848.711509881256	1492.224290214815	457.142248166454	840.306444870429	941.788130232962	588.599184346378	884.633478438161	954.091695318111	316.448794556862	909.914280038480	757.500616368450	568.073544103361	844.184915015783	642.857984537853	630.382645612231	933.721159256900	596.542282705808	557.249529306163	951.560717369848	507.158189395456	573.541177489849	908.229945650969	737.020273509931	364.329675119184	827.621742581559	619.375938561565	290.955369655061	890.178058526801	543.473581076586	374.942117732742	884.111901664769	472.659158815813	384.658056261486	846.930396246666	401.688096574283	371.345436786962	752.036823640852	298.192495731195	309.047925698610	773.477435330492	184.067120423466	387.255934335785	918.142121184098	419.306262809890	588.314022759557	843.411967292456	323.765556032073	661.186624369184	888.901526272583	221.675245787378	611.596830493688	758.422507495565	46.170641068334	600.462219627924	930.178003309364	109.909974740620	630.242997546542	846.972947249446	40.101574305876	669.113054982854	1052.663471556615	65.208577661465	648.789275967592	624.747244695357	38.139395951030	414.841611080933	704.265641828730	35.558935753678	339.367117567722	787.006399475032	94.753495624446	373.674300955238	916.228296428397	40.286736408605	352.184421083425	1006.332223983807	1140.239058054887	127.845497149691	1254.901654957113	1095.492453119652	181.363713802556	667.802112415265	1100.331602210701	689.864134816162	679.130633839980	839.851380455312	700.017485015836	
20	45.393928571429	643.052731725241	1015.748932855621	424.091743926888	901.244764962856	1435.508582368949	308.518035789633	948.162127656447	1351.166901174593	486.523857078796	824.934278732076	1424.450327436168	634.851989648043	850.612268889712	1491.995591171197	460.685873568147	838.230894661044	941.498031741450	593.027074438865	885.016181283781	953.719387516002	321.184279566346	907.196114801075	756.951219972144	573.381561817499	840.565167415547	642.506501203092	634.836207401047	930.701727126096	596.541061956183	562.303409315290	947.942026334626	508.994409048088	577.882961294359	906.437901103428	736.079140282650	368.299228298665	825.520933090548	619.519116543636	293.445616020874	886.829492363647	542.722156448372	377.427854751452	880.026247720846	472.103325673352	386.692618507047	842.900931931859	401.495473178735	372.861134973460	747.973703103692	298.389470713512	309.957617229858	769.132049152086	183.986374045976	387.818494590603	918.281291076002	420.110130258187	592.283761488793	847.684911848905	321.724607635577	665.670893570453	895.939381064998	221.338634586802	614.885086021426	770.211271996124	43.627749674447	604.430239128465	941.486418357704	109.260325117083	632.226066533844	859.738204250850	38.186595322341	671.748992943187	1064.651229619533	65.838233290920	648.358758510981	620.304330057966	38.056550197760	414.840900200816	699.827158965268	35.500344340789	339.364488353634	782.552737189576	94.751059484758	373.776106391053	911.796718558398	40.340777721087	352.251132558406	1011.340324341746	1138.402826532200	135.620299065605	1260.016466658493	1098.731972003601	192.017538923432	668.632690464361	1099.389764397496	692.132293187616	687.360264658811	839.133755922671	703.299757856864	
21	45.415714285714	642.954404664387	1015.573698470899	427.380537384969	903.015039288152	1434.256902938975	312.994606402744	948.656107841335	1350.272778891735	491.487116079708	824.863275980327	1424.488768732500	638.874584683070	852.513699411681	1491.445957467401	464.693428144812	836.943116924152	940.660934172736	597.491542967096	885.421216926998	953.202123286272	325.916194049588	905.171806755558	755.758158460143	578.108342844913	837.769245335610	641.564059827536	638.779211091817	928.138167609435	595.875759650482	566.476701089428	944.543078869488	509.784500487648	581.446635774213	905.160547197523	735.000225500094	372.075080870071	823.811456179337	619.453949820435	296.103922797896	884.105611772260	541.785201749048	379.953548283967	876.635045137324	471.321516140059	388.806631855296	839.399439201762	401.092916436832	374.495570822637	744.233277420251	298.562598340809	310.973228807892	764.962988137180	183.819464600926	388.415724124157	917.915029254653	420.111473018920	595.543581325461	850.606308487935	319.744714096157	669.312446623001	900.598999252672	220.764291215256	617.356914777253	777.998017710850	42.381600220663	607.475008178828	949.184626620158	108.322122070328	633.380826003631	868.251821824242	37.129247335210	673.718925037645	1072.487221554288	65.192214016224	647.666074212632	615.866938258069	37.989453407402	414.829775299405	695.395603661940	35.446560153896	339.366820115513	778.108812605582	94.747709726896	373.877201455984	907.365340328327	40.385348502398	352.309544167446	1015.024322326771	1135.630764311971	143.941097766856	1263.710232089233	1099.804300036614	202.821348068816	670.585637982848	1097.995681460386	695.651432411980	696.382363150853	838.110454653643	707.935129292697	
